<svg xmlns="http://www.w3.org/2000/svg" width="680" viewBox="0 0 680 580">
<style>text{font-family:'Segoe UI',system-ui,sans-serif}.th{font-size:14px;font-weight:600;fill:#2c2c2a}.ts{font-size:12px;fill:#5f5e5a}</style>
<defs><marker id="a" viewBox="0 0 10 10" refX="8" refY="5" markerWidth="6" markerHeight="6" orient="auto-start-reverse"><path d="M2 1L8 5L2 9" fill="none" stroke="context-stroke" stroke-width="1.5" stroke-linecap="round" stroke-linejoin="round"/></marker></defs>
<text class="th" x="340" y="32" text-anchor="middle" font-size="15">The missing puzzle piece — 1.6 million hectares connected</text>
<text class="ts" x="340" y="52" text-anchor="middle">Pucheguín completes the largest biological corridor in Latin America</text>
<path d="M420 70L415 140L425 210L418 280L430 350L422 420L428 490L425 550" fill="none" stroke="#888780" stroke-width="1" stroke-dasharray="6 4" opacity=".4"/>
<text class="ts" x="395" y="85" text-anchor="end" fill="#888780">Chile</text><text class="ts" x="445" y="85" text-anchor="start" fill="#888780">Argentina</text>
<rect x="60" y="90" width="160" height="60" rx="12" fill="#EAF3DE" stroke="#3B6D11" stroke-width="0.5"/><text class="th" x="140" y="115" text-anchor="middle" fill="#27500A" dominant-baseline="central">PN Hornopirén</text><text class="ts" x="140" y="135" text-anchor="middle" fill="#3B6D11" dominant-baseline="central">48,232 ha</text>
<rect x="240" y="90" width="160" height="60" rx="12" fill="#EAF3DE" stroke="#3B6D11" stroke-width="0.5"/><text class="th" x="320" y="115" text-anchor="middle" fill="#27500A" dominant-baseline="central">PN Alerce Andino</text><text class="ts" x="320" y="135" text-anchor="middle" fill="#3B6D11" dominant-baseline="central">39,255 ha</text>
<rect x="80" y="400" width="160" height="60" rx="12" fill="#EAF3DE" stroke="#3B6D11" stroke-width="0.5"/><text class="th" x="160" y="425" text-anchor="middle" fill="#27500A" dominant-baseline="central">PN Pumalín</text><text class="ts" x="160" y="445" text-anchor="middle" fill="#3B6D11" dominant-baseline="central">402,392 ha</text>
<rect x="100" y="320" width="140" height="52" rx="10" fill="#E1F5EE" stroke="#0F6E56" stroke-width="0.5"/><text class="th" x="170" y="340" text-anchor="middle" fill="#085041" dominant-baseline="central">SN Valle Cochamó</text><text class="ts" x="170" y="358" text-anchor="middle" fill="#0F6E56" dominant-baseline="central">11,400 ha</text>
<rect x="460" y="100" width="180" height="60" rx="12" fill="#E6F1FB" stroke="#185FA5" stroke-width="0.5"/><text class="th" x="550" y="122" text-anchor="middle" fill="#0C447C" dominant-baseline="central">PN Nahuel Huapi</text><text class="ts" x="550" y="142" text-anchor="middle" fill="#185FA5" dominant-baseline="central">717,261 ha (ARG)</text>
<rect x="460" y="200" width="180" height="60" rx="12" fill="#E6F1FB" stroke="#185FA5" stroke-width="0.5"/><text class="th" x="550" y="222" text-anchor="middle" fill="#0C447C" dominant-baseline="central">PN Lago Puelo</text><text class="ts" x="550" y="242" text-anchor="middle" fill="#185FA5" dominant-baseline="central">27,674 ha (ARG)</text>
<rect x="460" y="370" width="180" height="60" rx="12" fill="#E6F1FB" stroke="#185FA5" stroke-width="0.5"/><text class="th" x="550" y="392" text-anchor="middle" fill="#0C447C" dominant-baseline="central">PN Los Alerces</text><text class="ts" x="550" y="412" text-anchor="middle" fill="#185FA5" dominant-baseline="central">263,000 ha (ARG)</text>
<rect x="180" y="195" width="220" height="90" rx="14" fill="#FAEEDA" stroke="#854F0B" stroke-width="1.5"/><text class="th" x="290" y="228" text-anchor="middle" fill="#412402" dominant-baseline="central" font-size="16">PUCHEGUÍN</text><text class="ts" x="290" y="250" text-anchor="middle" fill="#854F0B" dominant-baseline="central">133,000 ha — the missing piece</text><text class="ts" x="290" y="268" text-anchor="middle" fill="#854F0B" dominant-baseline="central">Now protected (Dec 2025)</text>
<line x1="140" y1="150" x2="240" y2="195" stroke="#639922" stroke-width="1" opacity=".5" marker-end="url(#a)"/><line x1="320" y1="150" x2="300" y2="195" stroke="#639922" stroke-width="1" opacity=".5" marker-end="url(#a)"/><line x1="290" y1="285" x2="170" y2="318" stroke="#1D9E75" stroke-width="1" opacity=".5" marker-end="url(#a)"/><line x1="250" y1="285" x2="160" y2="398" stroke="#639922" stroke-width="1" opacity=".5" marker-end="url(#a)"/>
<line x1="400" y1="230" x2="458" y2="130" stroke="#378ADD" stroke-width="1" opacity=".5" marker-end="url(#a)"/><line x1="400" y1="240" x2="458" y2="230" stroke="#378ADD" stroke-width="1" opacity=".5" marker-end="url(#a)"/><line x1="380" y1="280" x2="458" y2="400" stroke="#378ADD" stroke-width="1" opacity=".5" marker-end="url(#a)"/>
<rect x="80" y="490" width="520" height="70" rx="10" fill="#F1EFE8" stroke="#5F5E5A" stroke-width="0.5"/><text class="th" x="340" y="516" text-anchor="middle" fill="#2C2C2A">Binational conservation corridor</text><text class="ts" x="340" y="536" text-anchor="middle" fill="#5F5E5A">~1,640,000 hectares of connected protected areas across Chile and Argentina</text>
</svg>
