<svg xmlns="http://www.w3.org/2000/svg" width="680" viewBox="0 0 680 400">
<defs>
<linearGradient id="gWyss" x1="0" y1="0" x2="0" y2="1"><stop offset="0%" stop-color="#2dd4a8" stop-opacity=".85"/><stop offset="100%" stop-color="#2dd4a8" stop-opacity=".15"/></linearGradient>
<linearGradient id="gFreyja" x1="0" y1="0" x2="0" y2="1"><stop offset="0%" stop-color="#6366f1" stop-opacity=".8"/><stop offset="100%" stop-color="#6366f1" stop-opacity=".1"/></linearGradient>
<linearGradient id="gPatagonia" x1="0" y1="0" x2="0" y2="1"><stop offset="0%" stop-color="#f59e0b" stop-opacity=".75"/><stop offset="100%" stop-color="#f59e0b" stop-opacity=".1"/></linearGradient>
<linearGradient id="gGlobal" x1="0" y1="0" x2="0" y2="1"><stop offset="0%" stop-color="#ec4899" stop-opacity=".7"/><stop offset="100%" stop-color="#ec4899" stop-opacity=".1"/></linearGradient>
<linearGradient id="gChile" x1="0" y1="0" x2="0" y2="1"><stop offset="0%" stop-color="#06b6d4" stop-opacity=".7"/><stop offset="100%" stop-color="#06b6d4" stop-opacity=".1"/></linearGradient>
</defs>
<rect width="680" height="400" rx="12" fill="#0f172a"/>
<text x="340" y="28" text-anchor="middle" fill="#e2e8f0" font-family="system-ui,sans-serif" font-size="15" font-weight="600">Conserva Pucheguín — Fundraising Progress (USD millions)</text>
<text x="340" y="46" text-anchor="middle" fill="#94a3b8" font-family="system-ui,sans-serif" font-size="11">April 2024 – December 2025 | Goal: $78M | Result: $78M raised from 21 countries</text>
<line x1="60" y1="60" x2="60" y2="340" stroke="#334155" stroke-width="0.5"/>
<line x1="60" y1="340" x2="650" y2="340" stroke="#334155" stroke-width="0.5"/>
<line x1="60" y1="270" x2="650" y2="270" stroke="#1e293b" stroke-width="0.5" stroke-dasharray="4 4"/><text x="55" y="274" text-anchor="end" fill="#64748b" font-family="system-ui,sans-serif" font-size="10">$20M</text>
<line x1="60" y1="200" x2="650" y2="200" stroke="#1e293b" stroke-width="0.5" stroke-dasharray="4 4"/><text x="55" y="204" text-anchor="end" fill="#64748b" font-family="system-ui,sans-serif" font-size="10">$40M</text>
<line x1="60" y1="130" x2="650" y2="130" stroke="#1e293b" stroke-width="0.5" stroke-dasharray="4 4"/><text x="55" y="134" text-anchor="end" fill="#64748b" font-family="system-ui,sans-serif" font-size="10">$60M</text>
<line x1="60" y1="60" x2="650" y2="60" stroke="#1e293b" stroke-width="0.5" stroke-dasharray="4 4"/><text x="55" y="64" text-anchor="end" fill="#64748b" font-family="system-ui,sans-serif" font-size="10">$78M</text>
<text x="55" y="344" text-anchor="end" fill="#64748b" font-family="system-ui,sans-serif" font-size="10">$0</text>
<path d="M60 340 L130 322 L200 296 L270 270 L340 236 L410 200 L480 168 L550 120 L620 80 L650 60 L650 340Z" fill="url(#gWyss)"/>
<path d="M60 340 L130 322 L200 296 L270 270 L340 236 L410 200 L480 168 L550 120 L620 80 L650 60" fill="none" stroke="#2dd4a8" stroke-width="2.5" stroke-linecap="round" stroke-linejoin="round"/>
<path d="M60 340 L130 330 L200 312 L270 290 L340 265 L410 238 L480 210 L550 172 L620 130 L650 110 L650 340Z" fill="url(#gFreyja)" opacity=".6"/>
<path d="M60 340 L130 335 L200 320 L270 305 L340 285 L410 264 L480 240 L550 208 L620 170 L650 155 L650 340Z" fill="url(#gPatagonia)" opacity=".5"/>
<path d="M60 340 L130 338 L200 330 L270 318 L340 302 L410 285 L480 265 L550 240 L620 210 L650 200 L650 340Z" fill="url(#gGlobal)" opacity=".4"/>
<path d="M60 340 L130 339 L200 335 L270 328 L340 318 L410 305 L480 290 L550 268 L620 245 L650 235 L650 340Z" fill="url(#gChile)" opacity=".35"/>
<circle cx="650" cy="60" r="5" fill="#2dd4a8" stroke="#0f172a" stroke-width="2"/>
<text x="622" y="56" text-anchor="end" fill="#2dd4a8" font-family="system-ui,sans-serif" font-size="12" font-weight="700">$78M</text>
<text x="89" y="358" text-anchor="middle" fill="#94a3b8" font-family="system-ui,sans-serif" font-size="9">Apr 24</text>
<text x="200" y="358" text-anchor="middle" fill="#94a3b8" font-family="system-ui,sans-serif" font-size="9">Jul 24</text>
<text x="340" y="358" text-anchor="middle" fill="#94a3b8" font-family="system-ui,sans-serif" font-size="9">Jan 25</text>
<text x="480" y="358" text-anchor="middle" fill="#94a3b8" font-family="system-ui,sans-serif" font-size="9">Jun 25</text>
<text x="550" y="358" text-anchor="middle" fill="#94a3b8" font-family="system-ui,sans-serif" font-size="9">Sep 25</text>
<text x="650" y="358" text-anchor="middle" fill="#94a3b8" font-family="system-ui,sans-serif" font-size="9">Dec 25</text>
<rect x="80" y="372" width="10" height="10" rx="2" fill="#2dd4a8" opacity=".8"/><text x="94" y="381" fill="#94a3b8" font-family="system-ui,sans-serif" font-size="9">Total raised</text>
<rect x="170" y="372" width="10" height="10" rx="2" fill="#6366f1" opacity=".7"/><text x="184" y="381" fill="#94a3b8" font-family="system-ui,sans-serif" font-size="9">Major foundations</text>
<rect x="290" y="372" width="10" height="10" rx="2" fill="#f59e0b" opacity=".7"/><text x="304" y="381" fill="#94a3b8" font-family="system-ui,sans-serif" font-size="9">Corporate partners</text>
<rect x="420" y="372" width="10" height="10" rx="2" fill="#ec4899" opacity=".6"/><text x="434" y="381" fill="#94a3b8" font-family="system-ui,sans-serif" font-size="9">International donors</text>
<rect x="555" y="372" width="10" height="10" rx="2" fill="#06b6d4" opacity=".6"/><text x="569" y="381" fill="#94a3b8" font-family="system-ui,sans-serif" font-size="9">Chilean donors</text>
</svg>
