<svg xmlns="http://www.w3.org/2000/svg" width="680" viewBox="0 0 680 400">
<defs>
<linearGradient id="hForest" x1="0" y1="0" x2="0" y2="1"><stop offset="0%" stop-color="#22c55e" stop-opacity=".8"/><stop offset="100%" stop-color="#22c55e" stop-opacity=".1"/></linearGradient>
<linearGradient id="hSanctuary" x1="0" y1="0" x2="0" y2="1"><stop offset="0%" stop-color="#06b6d4" stop-opacity=".7"/><stop offset="100%" stop-color="#06b6d4" stop-opacity=".1"/></linearGradient>
<linearGradient id="hFreyja" x1="0" y1="0" x2="0" y2="1"><stop offset="0%" stop-color="#a855f7" stop-opacity=".6"/><stop offset="100%" stop-color="#a855f7" stop-opacity=".1"/></linearGradient>
</defs>
<rect width="680" height="400" rx="12" fill="#0f172a"/>
<text x="340" y="28" text-anchor="middle" fill="#e2e8f0" font-family="system-ui,sans-serif" font-size="15" font-weight="600">Hectares Under Protection — Cochamó Municipality</text>
<text x="340" y="46" text-anchor="middle" fill="#94a3b8" font-family="system-ui,sans-serif" font-size="11">Conservation milestones 2009–2025 | Cumulative protected area by category</text>
<line x1="80" y1="60" x2="80" y2="330" stroke="#334155" stroke-width="0.5"/>
<line x1="80" y1="330" x2="640" y2="330" stroke="#334155" stroke-width="0.5"/>
<line x1="80" y1="276" x2="640" y2="276" stroke="#1e293b" stroke-width="0.5" stroke-dasharray="4 4"/><text x="75" y="280" text-anchor="end" fill="#64748b" font-family="system-ui,sans-serif" font-size="9">20K</text>
<line x1="80" y1="222" x2="640" y2="222" stroke="#1e293b" stroke-width="0.5" stroke-dasharray="4 4"/><text x="75" y="226" text-anchor="end" fill="#64748b" font-family="system-ui,sans-serif" font-size="9">40K</text>
<line x1="80" y1="168" x2="640" y2="168" stroke="#1e293b" stroke-width="0.5" stroke-dasharray="4 4"/><text x="75" y="172" text-anchor="end" fill="#64748b" font-family="system-ui,sans-serif" font-size="9">60K</text>
<line x1="80" y1="114" x2="640" y2="114" stroke="#1e293b" stroke-width="0.5" stroke-dasharray="4 4"/><text x="75" y="118" text-anchor="end" fill="#64748b" font-family="system-ui,sans-serif" font-size="9">80K</text>
<line x1="80" y1="60" x2="640" y2="60" stroke="#1e293b" stroke-width="0.5" stroke-dasharray="4 4"/><text x="75" y="64" text-anchor="end" fill="#64748b" font-family="system-ui,sans-serif" font-size="9">133K</text>
<text x="75" y="334" text-anchor="end" fill="#64748b" font-family="system-ui,sans-serif" font-size="9">0</text>
<path d="M80 330 L140 330 L200 330 L260 330 L320 330 L380 330 L440 330 L500 326 L502 326 L502 330Z" fill="url(#hFreyja)" opacity=".5"/>
<path d="M80 330 L140 330 L200 330 L260 330 L320 330 L380 330 L440 330 L500 307 L502 307 L502 330Z" fill="url(#hSanctuary)" opacity=".6"/>
<path d="M500 307 L502 307 L560 307 L562 307 L562 330 L500 330Z" fill="url(#hSanctuary)" opacity=".6"/>
<path d="M560 307 L562 60 L640 60 L640 330 L560 330Z" fill="url(#hForest)"/>
<path d="M80 330 L500 330 L500 307 L502 307" fill="none" stroke="#06b6d4" stroke-width="2" stroke-linecap="round"/>
<path d="M502 307 L560 307" fill="none" stroke="#06b6d4" stroke-width="2" stroke-linecap="round"/>
<path d="M560 307 L562 60 L640 60" fill="none" stroke="#22c55e" stroke-width="2.5" stroke-linecap="round"/>
<circle cx="500" cy="307" r="4" fill="#06b6d4" stroke="#0f172a" stroke-width="2"/>
<circle cx="502" cy="326" r="3" fill="#a855f7" stroke="#0f172a" stroke-width="2"/>
<circle cx="640" cy="60" r="5" fill="#22c55e" stroke="#0f172a" stroke-width="2"/>
<text x="500" y="298" text-anchor="middle" fill="#06b6d4" font-family="system-ui,sans-serif" font-size="10" font-weight="600">11,400 ha</text>
<text x="640" y="52" text-anchor="end" fill="#22c55e" font-family="system-ui,sans-serif" font-size="12" font-weight="700">144,585 ha</text>
<text x="120" y="350" text-anchor="middle" fill="#64748b" font-family="system-ui,sans-serif" font-size="9">2009</text>
<text x="260" y="350" text-anchor="middle" fill="#64748b" font-family="system-ui,sans-serif" font-size="9">2013</text>
<text x="380" y="350" text-anchor="middle" fill="#64748b" font-family="system-ui,sans-serif" font-size="9">2016</text>
<text x="500" y="350" text-anchor="middle" fill="#64748b" font-family="system-ui,sans-serif" font-size="9">2023</text>
<text x="600" y="350" text-anchor="middle" fill="#64748b" font-family="system-ui,sans-serif" font-size="9">2025</text>
<rect x="100" y="372" width="10" height="10" rx="2" fill="#22c55e" opacity=".8"/><text x="114" y="381" fill="#94a3b8" font-family="system-ui,sans-serif" font-size="9">Fundo Pucheguín (132,876 ha)</text>
<rect x="310" y="372" width="10" height="10" rx="2" fill="#06b6d4" opacity=".7"/><text x="324" y="381" fill="#94a3b8" font-family="system-ui,sans-serif" font-size="9">Nature Sanctuary (11,400 ha)</text>
<rect x="510" y="372" width="10" height="10" rx="2" fill="#a855f7" opacity=".6"/><text x="524" y="381" fill="#94a3b8" font-family="system-ui,sans-serif" font-size="9">Freyja property (309 ha)</text>
</svg>
