<svg xmlns="http://www.w3.org/2000/svg" viewBox="0 0 800 680" width="800" height="680">
<rect width="800" height="680" fill="#0d1117" rx="12"/>
<text x="400" y="32" text-anchor="middle" font-family="Arial,sans-serif" font-size="18" font-weight="600" fill="#c9d1d9">Granite - Territorial knowledge architecture</text>
<text x="400" y="52" text-anchor="middle" font-family="Arial,sans-serif" font-size="12" fill="#8b949e">12 domains - 56 subfolders - Open data repository for protected areas</text>
<rect x="240" y="64" width="320" height="42" rx="8" fill="#1f2937" stroke="#2dd4a8" stroke-width="1"/>
<text x="400" y="82" text-anchor="middle" dominant-baseline="central" font-family="Arial,sans-serif" font-size="14" font-weight="600" fill="#2dd4a8">data/</text>
<text x="400" y="96" text-anchor="middle" dominant-baseline="central" font-family="Arial,sans-serif" font-size="11" fill="#8b949e">Territorial knowledge repository</text>
<line x1="400" y1="106" x2="400" y2="124" stroke="#30363d" stroke-width="1"/>
<line x1="100" y1="124" x2="700" y2="124" stroke="#30363d" stroke-width="1"/>
<line x1="100" y1="124" x2="100" y2="140" stroke="#30363d"/>
<rect x="20" y="140" width="160" height="36" rx="6" fill="#1c1917" stroke="#f59e0b" stroke-width="0.8"/>
<text x="100" y="162" text-anchor="middle" font-family="Arial,sans-serif" font-size="13" font-weight="600" fill="#fbbf24">Administracion</text>
<line x1="300" y1="124" x2="300" y2="140" stroke="#30363d"/>
<rect x="220" y="140" width="160" height="36" rx="6" fill="#042f2e" stroke="#2dd4bf" stroke-width="0.8"/>
<text x="300" y="162" text-anchor="middle" font-family="Arial,sans-serif" font-size="13" font-weight="600" fill="#5eead4">Ciencia</text>
<line x1="500" y1="124" x2="500" y2="140" stroke="#30363d"/>
<rect x="420" y="140" width="160" height="36" rx="6" fill="#052e16" stroke="#22c55e" stroke-width="0.8"/>
<text x="500" y="162" text-anchor="middle" font-family="Arial,sans-serif" font-size="13" font-weight="600" fill="#4ade80">Conservacion</text>
<line x1="700" y1="124" x2="700" y2="140" stroke="#30363d"/>
<rect x="620" y="140" width="160" height="36" rx="6" fill="#1c1917" stroke="#f97316" stroke-width="0.8"/>
<text x="700" y="162" text-anchor="middle" font-family="Arial,sans-serif" font-size="13" font-weight="600" fill="#fb923c">Legal</text>
<line x1="300" y1="176" x2="300" y2="192" stroke="#30363d"/>
<rect x="230" y="192" width="140" height="92" rx="4" fill="#0d1117" stroke="#30363d" stroke-width="0.5"/>
<text x="300" y="210" text-anchor="middle" font-family="Arial,sans-serif" font-size="10" fill="#8b949e">geologia</text>
<text x="300" y="224" text-anchor="middle" font-family="Arial,sans-serif" font-size="10" fill="#8b949e">fauna / flora</text>
<text x="300" y="238" text-anchor="middle" font-family="Arial,sans-serif" font-size="10" fill="#8b949e">hidrologia</text>
<text x="300" y="252" text-anchor="middle" font-family="Arial,sans-serif" font-size="10" fill="#8b949e">clima</text>
<text x="300" y="266" text-anchor="middle" font-family="Arial,sans-serif" font-size="10" fill="#8b949e">expediciones</text>
<line x1="500" y1="176" x2="500" y2="192" stroke="#30363d"/>
<rect x="430" y="192" width="140" height="78" rx="4" fill="#0d1117" stroke="#30363d" stroke-width="0.5"/>
<text x="500" y="210" text-anchor="middle" font-family="Arial,sans-serif" font-size="10" fill="#8b949e">planes de manejo</text>
<text x="500" y="224" text-anchor="middle" font-family="Arial,sans-serif" font-size="10" fill="#8b949e">restauracion</text>
<text x="500" y="238" text-anchor="middle" font-family="Arial,sans-serif" font-size="10" fill="#8b949e">spp. prioritarias</text>
<text x="500" y="252" text-anchor="middle" font-family="Arial,sans-serif" font-size="10" fill="#8b949e">invasoras / incendios</text>
<line x1="700" y1="176" x2="700" y2="192" stroke="#30363d"/>
<rect x="630" y="192" width="140" height="78" rx="4" fill="#0d1117" stroke="#30363d" stroke-width="0.5"/>
<text x="700" y="210" text-anchor="middle" font-family="Arial,sans-serif" font-size="10" fill="#8b949e">propiedad / DRC</text>
<text x="700" y="224" text-anchor="middle" font-family="Arial,sans-serif" font-size="10" fill="#8b949e">permisos</text>
<text x="700" y="238" text-anchor="middle" font-family="Arial,sans-serif" font-size="10" fill="#8b949e">normativa ambiental</text>
<text x="700" y="252" text-anchor="middle" font-family="Arial,sans-serif" font-size="10" fill="#8b949e">convenios</text>
<line x1="400" y1="296" x2="400" y2="316" stroke="#30363d" stroke-dasharray="3 3"/>
<line x1="100" y1="316" x2="700" y2="316" stroke="#30363d"/>
<line x1="100" y1="316" x2="100" y2="332" stroke="#30363d"/>
<rect x="20" y="332" width="160" height="36" rx="6" fill="#172554" stroke="#3b82f6" stroke-width="0.8"/>
<text x="100" y="354" text-anchor="middle" font-family="Arial,sans-serif" font-size="13" font-weight="600" fill="#60a5fa">Monitoreo</text>
<line x1="300" y1="316" x2="300" y2="332" stroke="#30363d"/>
<rect x="220" y="332" width="160" height="36" rx="6" fill="#1c1917" stroke="#f97316" stroke-width="0.8"/>
<text x="300" y="354" text-anchor="middle" font-family="Arial,sans-serif" font-size="13" font-weight="600" fill="#fb923c">Deportes</text>
<line x1="500" y1="316" x2="500" y2="332" stroke="#30363d"/>
<rect x="420" y="332" width="160" height="36" rx="6" fill="#450a0a" stroke="#ef4444" stroke-width="0.8"/>
<text x="500" y="354" text-anchor="middle" font-family="Arial,sans-serif" font-size="13" font-weight="600" fill="#f87171">Seguridad</text>
<line x1="700" y1="316" x2="700" y2="332" stroke="#30363d"/>
<rect x="620" y="332" width="160" height="36" rx="6" fill="#1f2937" stroke="#6b7280" stroke-width="0.8"/>
<text x="700" y="354" text-anchor="middle" font-family="Arial,sans-serif" font-size="13" font-weight="600" fill="#9ca3af">Infraestructura</text>
<line x1="300" y1="368" x2="300" y2="384" stroke="#30363d"/>
<rect x="225" y="384" width="150" height="106" rx="4" fill="#0d1117" stroke="#30363d" stroke-width="0.5"/>
<text x="300" y="400" text-anchor="middle" font-family="Arial,sans-serif" font-size="10" fill="#8b949e">escalada (rutas)</text>
<text x="300" y="414" text-anchor="middle" font-family="Arial,sans-serif" font-size="10" fill="#8b949e">escalada (protocolos)</text>
<text x="300" y="428" text-anchor="middle" font-family="Arial,sans-serif" font-size="10" fill="#8b949e">escalada (historia)</text>
<text x="300" y="442" text-anchor="middle" font-family="Arial,sans-serif" font-size="10" fill="#8b949e">trekking / cabalgatas</text>
<text x="300" y="456" text-anchor="middle" font-family="Arial,sans-serif" font-size="10" fill="#8b949e">trail running</text>
<text x="300" y="470" text-anchor="middle" font-family="Arial,sans-serif" font-size="10" fill="#8b949e">kayak / primitivos</text>
<line x1="400" y1="500" x2="400" y2="520" stroke="#30363d" stroke-dasharray="3 3"/>
<line x1="100" y1="520" x2="700" y2="520" stroke="#30363d"/>
<line x1="100" y1="520" x2="100" y2="536" stroke="#30363d"/>
<rect x="20" y="536" width="160" height="36" rx="6" fill="#4a044e" stroke="#d946ef" stroke-width="0.8"/>
<text x="100" y="558" text-anchor="middle" font-family="Arial,sans-serif" font-size="13" font-weight="600" fill="#e879f9">Comunidad</text>
<line x1="300" y1="520" x2="300" y2="536" stroke="#30363d"/>
<rect x="220" y="536" width="160" height="36" rx="6" fill="#1c1917" stroke="#f59e0b" stroke-width="0.8"/>
<text x="300" y="558" text-anchor="middle" font-family="Arial,sans-serif" font-size="13" font-weight="600" fill="#fbbf24">Patrimonio</text>
<line x1="500" y1="520" x2="500" y2="536" stroke="#30363d"/>
<rect x="420" y="536" width="160" height="36" rx="6" fill="#042f2e" stroke="#2dd4bf" stroke-width="0.8"/>
<text x="500" y="558" text-anchor="middle" font-family="Arial,sans-serif" font-size="13" font-weight="600" fill="#5eead4">Visitantes</text>
<line x1="700" y1="520" x2="700" y2="536" stroke="#30363d"/>
<rect x="620" y="536" width="160" height="36" rx="6" fill="#2e1065" stroke="#8b5cf6" stroke-width="0.8"/>
<text x="700" y="558" text-anchor="middle" font-family="Arial,sans-serif" font-size="13" font-weight="600" fill="#a78bfa">Territorio</text>
<rect x="60" y="596" width="680" height="42" rx="8" fill="#1f2937" stroke="#30363d" stroke-width="0.8"/>
<text x="400" y="614" text-anchor="middle" font-family="Arial,sans-serif" font-size="13" font-weight="600" fill="#c9d1d9">12 domains / 56 subfolders / 14 collaboration guides</text>
<text x="400" y="630" text-anchor="middle" font-family="Arial,sans-serif" font-size="10" fill="#8b949e">Open to researchers, climbers, rangers, community / CC BY 4.0</text>
<text x="400" y="664" text-anchor="middle" font-family="Arial,sans-serif" font-size="10" fill="#6e7681" font-style="italic">Replicable by any protected area on the planet / Naveguemos la vanguardia</text>
</svg>
