<svg xmlns="http://www.w3.org/2000/svg" width="680" viewBox="0 0 680 380">
<defs>
<linearGradient id="p80g" x1="0" y1="0" x2="1" y2="1"><stop offset="0%" stop-color="#34d399" stop-opacity=".95"/><stop offset="50%" stop-color="#10b981" stop-opacity=".7"/><stop offset="100%" stop-color="#059669" stop-opacity=".85"/></linearGradient>
<linearGradient id="p20g" x1="0" y1="0" x2="1" y2="1"><stop offset="0%" stop-color="#fbbf24" stop-opacity=".9"/><stop offset="50%" stop-color="#f59e0b" stop-opacity=".65"/><stop offset="100%" stop-color="#d97706" stop-opacity=".8"/></linearGradient>
<linearGradient id="p80s" x1="0" y1="0" x2="0" y2="1"><stop offset="0%" stop-color="#059669" stop-opacity=".9"/><stop offset="100%" stop-color="#047857" stop-opacity=".5"/></linearGradient>
<linearGradient id="p20s" x1="0" y1="0" x2="0" y2="1"><stop offset="0%" stop-color="#d97706" stop-opacity=".9"/><stop offset="100%" stop-color="#b45309" stop-opacity=".5"/></linearGradient>
<filter id="glow"><feGaussianBlur stdDeviation="2" result="blur"/><feMerge><feMergeNode in="blur"/><feMergeNode in="SourceGraphic"/></feMerge></filter>
</defs>
<rect width="680" height="380" rx="12" fill="#f8fafc"/>
<text x="340" y="30" text-anchor="middle" fill="#1e293b" font-family="system-ui,sans-serif" font-size="16" font-weight="700">Conservation Plan — Land Use Distribution</text>
<text x="340" y="50" text-anchor="middle" fill="#64748b" font-family="system-ui,sans-serif" font-size="11">Fundo Pucheguín management model | Fundación Conserva Pucheguín</text>
<g transform="translate(220, 80)">
<ellipse cx="120" cy="190" rx="120" ry="30" fill="#047857" opacity=".18"/>
<ellipse cx="120" cy="185" rx="115" ry="28" fill="url(#p80s)" opacity=".4"/>
<path d="M120 60 A120 120 0 1 1 47.08 217.08 L120 180 Z" fill="url(#p80g)" stroke="#f8fafc" stroke-width="1.5"/>
<path d="M47.08 217.08 A120 120 0 0 1 120 60 L120 180 Z" fill="url(#p20g)" stroke="#f8fafc" stroke-width="1.5"/>
<ellipse cx="120" cy="180" rx="55" ry="55" fill="#f8fafc" opacity=".15"/>
<ellipse cx="100" cy="140" rx="35" ry="20" fill="white" opacity=".18"/>
<path d="M47.08 217.08 A120 120 0 0 1 120 60 L120 60 L120 60" fill="none" stroke="#f59e0b" stroke-width="0" opacity="0"/>
<ellipse cx="120" cy="180" rx="40" ry="40" fill="#f8fafc" opacity=".08"/>
</g>
<text x="420" y="145" fill="#059669" font-family="system-ui,sans-serif" font-size="36" font-weight="800">80%</text>
<text x="420" y="168" fill="#047857" font-family="system-ui,sans-serif" font-size="14" font-weight="600">Strict protection</text>
<text x="420" y="188" fill="#64748b" font-family="system-ui,sans-serif" font-size="11">Future national park designation</text>
<text x="420" y="204" fill="#64748b" font-family="system-ui,sans-serif" font-size="11">Ecologically sensitive areas</text>
<text x="420" y="220" fill="#64748b" font-family="system-ui,sans-serif" font-size="11">Inaccessible wilderness zones</text>
<text x="420" y="260" fill="#d97706" font-family="system-ui,sans-serif" font-size="28" font-weight="800">20%</text>
<text x="420" y="280" fill="#b45309" font-family="system-ui,sans-serif" font-size="14" font-weight="600">Sustainable use</text>
<text x="420" y="300" fill="#64748b" font-family="system-ui,sans-serif" font-size="11">Low-impact tourism</text>
<text x="420" y="316" fill="#64748b" font-family="system-ui,sans-serif" font-size="11">Traditional agriculture</text>
<text x="420" y="332" fill="#64748b" font-family="system-ui,sans-serif" font-size="11">Community activities</text>
<rect x="60" y="350" width="560" height="22" rx="4" fill="#f1f5f9"/>
<text x="340" y="365" text-anchor="middle" fill="#94a3b8" font-family="system-ui,sans-serif" font-size="10">Aligned with Chile's SBAP legislation for protected areas with multiple-use conservation zones</text>
</svg>
