<svg xmlns="http://www.w3.org/2000/svg" width="680" viewBox="0 0 680 380">
<defs>
<linearGradient id="cPuch" x1="0" y1="0" x2="1" y2="1"><stop offset="0%" stop-color="#f59e0b" stop-opacity=".95"/><stop offset="50%" stop-color="#d97706" stop-opacity=".7"/><stop offset="100%" stop-color="#b45309" stop-opacity=".85"/></linearGradient>
<linearGradient id="cChile" x1="0" y1="0" x2="1" y2="1"><stop offset="0%" stop-color="#22c55e" stop-opacity=".9"/><stop offset="50%" stop-color="#16a34a" stop-opacity=".65"/><stop offset="100%" stop-color="#15803d" stop-opacity=".8"/></linearGradient>
<linearGradient id="cArg" x1="0" y1="0" x2="1" y2="1"><stop offset="0%" stop-color="#3b82f6" stop-opacity=".9"/><stop offset="50%" stop-color="#2563eb" stop-opacity=".65"/><stop offset="100%" stop-color="#1d4ed8" stop-opacity=".8"/></linearGradient>
<linearGradient id="cSanc" x1="0" y1="0" x2="1" y2="1"><stop offset="0%" stop-color="#06b6d4" stop-opacity=".85"/><stop offset="50%" stop-color="#0891b2" stop-opacity=".6"/><stop offset="100%" stop-color="#0e7490" stop-opacity=".75"/></linearGradient>
</defs>
<rect width="680" height="380" rx="12" fill="#f8fafc"/>
<text x="340" y="30" text-anchor="middle" fill="#1e293b" font-family="system-ui,sans-serif" font-size="16" font-weight="700">Binational Biological Corridor — 1.64 Million Hectares</text>
<text x="340" y="50" text-anchor="middle" fill="#64748b" font-family="system-ui,sans-serif" font-size="11">Protected areas connected by Pucheguín across Chile and Argentina</text>
<g transform="translate(220, 75)">
<ellipse cx="120" cy="195" rx="120" ry="30" fill="#1d4ed8" opacity=".12"/>
<ellipse cx="120" cy="190" rx="115" ry="28" fill="#15803d" opacity=".15"/>
<path d="M120 60 A120 120 0 0 1 232.94 127.06 L120 180 Z" fill="url(#cPuch)" stroke="#f8fafc" stroke-width="1.5"/>
<path d="M232.94 127.06 A120 120 0 0 1 120 300 L120 180 Z" fill="url(#cChile)" stroke="#f8fafc" stroke-width="1.5"/>
<path d="M120 300 A120 120 0 0 1 7.06 127.06 L120 180 Z" fill="url(#cArg)" stroke="#f8fafc" stroke-width="1.5"/>
<path d="M7.06 127.06 A120 120 0 0 1 120 60 L120 180 Z" fill="url(#cSanc)" stroke="#f8fafc" stroke-width="1.5"/>
<ellipse cx="120" cy="180" rx="55" ry="55" fill="#f8fafc" opacity=".12"/>
<ellipse cx="100" cy="140" rx="30" ry="18" fill="white" opacity=".15"/>
<text x="120" y="176" text-anchor="middle" fill="#475569" font-family="system-ui,sans-serif" font-size="14" font-weight="700">1.64M</text>
<text x="120" y="194" text-anchor="middle" fill="#64748b" font-family="system-ui,sans-serif" font-size="10">hectares</text>
</g>
<rect x="420" y="90" width="16" height="16" rx="4" fill="#d97706" opacity=".85"/>
<text x="442" y="102" fill="#92400e" font-family="system-ui,sans-serif" font-size="13" font-weight="700">Pucheguín</text>
<text x="442" y="118" fill="#64748b" font-family="system-ui,sans-serif" font-size="11">132,876 ha — the missing piece</text>
<rect x="420" y="140" width="16" height="16" rx="4" fill="#16a34a" opacity=".85"/>
<text x="442" y="152" fill="#14532d" font-family="system-ui,sans-serif" font-size="13" font-weight="700">Chilean Parks</text>
<text x="442" y="168" fill="#64748b" font-family="system-ui,sans-serif" font-size="11">PN Pumalín (402K) + Hornopirén</text>
<text x="442" y="184" fill="#64748b" font-family="system-ui,sans-serif" font-size="11">(48K) + Alerce Andino (39K)</text>
<rect x="420" y="206" width="16" height="16" rx="4" fill="#2563eb" opacity=".85"/>
<text x="442" y="218" fill="#1e3a5f" font-family="system-ui,sans-serif" font-size="13" font-weight="700">Argentine Parks</text>
<text x="442" y="234" fill="#64748b" font-family="system-ui,sans-serif" font-size="11">PN Nahuel Huapi (717K) + Los</text>
<text x="442" y="250" fill="#64748b" font-family="system-ui,sans-serif" font-size="11">Alerces (263K) + Lago Puelo (28K)</text>
<rect x="420" y="272" width="16" height="16" rx="4" fill="#0891b2" opacity=".85"/>
<text x="442" y="284" fill="#164e63" font-family="system-ui,sans-serif" font-size="13" font-weight="700">Sanctuary + Reserves</text>
<text x="442" y="300" fill="#64748b" font-family="system-ui,sans-serif" font-size="11">SN Valle Cochamó (11.4K) +</text>
<text x="442" y="316" fill="#64748b" font-family="system-ui,sans-serif" font-size="11">Río Puelo Water Reserve + others</text>
<rect x="60" y="350" width="560" height="22" rx="4" fill="#f1f5f9"/>
<text x="340" y="365" text-anchor="middle" fill="#94a3b8" font-family="system-ui,sans-serif" font-size="10">Pucheguín connects fragmented habitats, enabling wildlife movement across the Chile-Argentina border</text>
</svg>
